# AST/ASF file generated using VICON BodyLanguage
# -----------------------------------------------
:version 1.10
:name VICON
:units
  mass 1.0
  length 0.45
  angle deg
:documentation
   .ast/.asf automatically generated from VICON data using
   VICON BodyBuilder and BodyLanguage model FoxedUp or BRILLIANT.MOD
:root
   order TX TY TZ RX RY RZ
   axis XYZ
   position 0 0 0  
   orientation 0 0 0 
:bonedata
  begin
     id 1 
     name lhipjoint
     direction 0.522423 -0.726805 0.445902 
     length 2.25074 
     axis 0 0 0  XYZ
  end
  begin
     id 2 
     name lfemur
     direction 0.34202 -0.939693 0  
     length 6.54609  
     axis 0 0 20  XYZ
    dof rx ry rz
    limits (-160.0 20.0)
           (-70.0 70.0)
           (-60.0 70.0)
  end
  begin
     id 3 
     name ltibia
     direction 0.34202 -0.939693 0   
     length 7.7528   
     axis 0 0 20   XYZ
    dof rx
    limits (-10.0 170.0)
  end
  begin
     id 4 
     name lfoot
     direction 0.143696 -0.394801 0.90746   
     length 1.73269   
     axis -90 7.62852e-016 20   XYZ
    dof rx rz
    limits (-45.0 90.0)
           (-70.0 20.0)
  end
  begin
     id 5 
     name ltoes
     direction 1.53633e-011 -4.21912e-011 1   
     length 0.858383   
     axis -90 7.62852e-016 20   XYZ
    dof rx
    limits (-90.0 20.0)
  end
  begin
     id 6 
     name rhipjoint
     direction -0.515943 -0.73016 0.447961   
     length 2.2404  
     axis 0 0 0  XYZ 
  end
  begin
     id 7 
     name rfemur
     direction -0.34202 -0.939693 0   
     length 6.84377   
     axis 0 0 -20   XYZ
    dof rx ry rz
    limits (-160.0 20.0)
           (-70.0 70.0)
           (-70.0 60.0)
  end
  begin
     id 8 
     name rtibia
     direction -0.34202 -0.939693 0   
     length 7.57596   
     axis 0 0 -20   XYZ
    dof rx
    limits (-10.0 170.0)
 end
 begin
     id 9 
     name rfoot
     direction -0.0999372 -0.274575 0.956358   
     length 1.78783  
     axis -90 -7.62852e-016 -20   XYZ
    dof rx rz
    limits (-45.0 90.0)
           (-20.0 70.0)
  end
  begin
     id 10 
     name rtoes
     direction -1.53535e-011 -4.21895e-011 1   
     length 0.898614   
     axis -90 -7.62852e-016 -20   XYZ
    dof rx
    limits (-90.0 20.0)
  end
  begin
     id 11 
     name lowerback
     direction -0.011775 0.996164 -0.0867116   
     length 1.91499   
     axis 0 0 0   XYZ
    dof rx ry rz
    limits (-20.0 45.0)
           (-30.0 30.0)
           (-30.0 30.0)
  end
  begin
     id 12 
     name upperback
     direction -0.00189771 0.999673 -0.0254833   
     length 1.92213   
     axis 0 0 0   XYZ
    dof rx ry rz
    limits (-20.0 45.0)
           (-30.0 30.0)
           (-30.0 30.0)
  end
  begin
     id 13 
     name thorax
     direction 0.00335995 0.999878 0.0152401   
     length 1.93138   
     axis 0 0 0   XYZ
    dof rx ry rz
    limits (-20.0 45.0)
           (-30.0 30.0)
           (-30.0 30.0)
  end
  begin
     id 14 
     name lowerneck
     direction 0.00233191 0.998509 0.0545404   
     length 1.59408   
     axis 0 0 0   XYZ
    dof rx ry rz
    limits (-20.0 45.0)
           (-30.0 30.0)
           (-30.0 30.0)
  end
  begin
     id 15 
     name upperneck
     direction 0.07881 0.9956 -0.0506934   
     length 1.59344   
     axis 0 0 0   XYZ
    dof rx ry rz
    limits (-20.0 45.0)
           (-30.0 30.0)
           (-30.0 30.0)
  end
  begin
     id 16
     name head
     direction 0.0261681 0.999378 -0.0236299  
     length 1.60935  
     axis 0 0 0   XYZ
    dof rx ry rz
    limits (-20.0 45.0)
           (-30.0 30.0)
           (-30.0 30.0)
  end
  begin
     id 17 
     name lclavicle
     direction 0.96643 0.252035 0.0499195  
     length 3.82153  
     axis 0 0 0   XYZ
    dof ry rz
    limits (-20.0 10.0)
           (0.0 20.0)
  end
  begin
     id 18 
     name lhumerus
     direction 1 -4.48967e-011 -2.01614e-018   
     length 4.87796   
     axis 180 -30 -90   XYZ
    dof rx ry rz
    limits (-60.0 90.0)
           (-90.0 90.0)
           (-90.0 90.0)
  end
  begin
     id 19
     name lradius
     direction 1 -4.48958e-011 3.1409e-027   
     length 3.23169   
     axis 180 -30 -90   XYZ
    dof rx
    limits (-10.0 170.0)
  end
  begin
     id 20
     name lwrist
     direction 1 -4.48924e-011 1.0365e-027   
     length 1.61584   
     axis -2.56395e-016 90 90   XYZ
    dof ry
    limits (-180.0 0.0)
 end
  begin
     id 21 
     name lhand
     direction 1 -4.49055e-011 2.09488e-027   
     length 0.731324   
     axis -1.32723e-015 90 90   XYZ
    dof rx rz
    limits (-90.0 90.0)
           (-45.0 45.0)
  end
  begin
     id 22 
     name lfingers
     direction 1 -4.48935e-011 4.14981e-027   
     length 0.589612   
     axis -2.6545e-015 90 90   XYZ
    dof rx
    limits (0.0 90.0)
  end
  begin
     id 23
     name lthumb
     direction 0.707107 -6.35097e-011 0.707107   
     length 0.846569   
     axis -90 45 5.05613e-014   XYZ
    dof rx rz
    limits (-45.0 45.0)
           (-45.0 45.0)
  end
  begin
     id 24 
     name rclavicle
     direction -0.979337 0.201016 0.0221522   
     length 3.73827  
     axis 0 0 0   XYZ 
    dof ry rz
    limits (-10.0 20.0)
           (-20.0 0.0)
  end
  begin
     id 25 
     name rhumerus
     direction -1 -4.48971e-011 1.65907e-027  
     length 4.9143   
     axis 180 30 90   XYZ
    dof rx ry rz
    limits (-90.0 60.0)
           (-90.0 90.0)
           (-90.0 90.0)
  end
  begin
     id 26 
     name rradius
     direction -1 -4.4894e-011 2.17871e-028   
     length 3.29093   
     axis 180 30 90   XYZ
    dof rx
    limits (-10.0 170.0)
  end
  begin
     id 27 
     name rwrist
     direction -1 -4.48971e-011 1.04038e-027   
     length 1.64546   
     axis -2.56395e-016 -90 -90   XYZ
    dof ry
    limits (-180.0 0.0)
  end
  begin
     id 28
     name rhand
     direction -1 -4.49017e-011 2.08843e-027   
     length 0.54512   
     axis -1.32723e-015 -90 -90   XYZ
    dof rx rz
    limits (-90.0 90.0)
           (-45.0 45.0)
  end
  begin
     id 29
     name rfingers
     direction -1 -4.48918e-011 4.1439e-027   
     length 0.43949   
     axis -2.6545e-015 -90 -90   XYZ
    dof rx
    limits (0.0 90.0)
  end
  begin
     id 30
     name rthumb
     direction -0.707107 -6.35065e-011 0.707107   
     length 0.631022   
     axis -90 -45 -5.05613e-014   XYZ
    dof rx rz
    limits (-45.0 45.0)
           (-45.0 45.0)
  end
:hierarchy
  begin
    root lhipjoint rhipjoint lowerback
    lhipjoint lfemur
    lfemur ltibia
    ltibia lfoot
    lfoot ltoes
    rhipjoint rfemur
    rfemur rtibia
    rtibia rfoot
    rfoot rtoes
    lowerback upperback
    upperback thorax
    thorax lowerneck lclavicle rclavicle
    lowerneck upperneck
    upperneck head
    lclavicle lhumerus
    lhumerus lradius
    lradius lwrist
    lwrist lhand lthumb
    lhand lfingers
    rclavicle rhumerus
    rhumerus rradius
    rradius rwrist
    rwrist rhand rthumb
    rhand rfingers
  end

#!OML:ASF H:\BreakDance\Project 1\Capture day 1\Session 1\Male.ASF
:FULLY-SPECIFIED
:DEGREES
206
root 1.91138 14.2443 -1.14537 27.5148 -88.1262 -30.9852
lowerback 10.8189 0.35624 -0.931197
upperback 4.89269 0.195628 -0.144803
thorax -0.976333 0.00835302 0.353073
lowerneck -7.58226 -2.21272 -4.04838
upperneck 5.89807 -3.40735 10.2691
head 3.24487 -1.39161 3.60816
rclavicle -1.2921e-015 -1.31198e-014
rhumerus 19.0791 4.89706 -76.6061
rradius 88.9153
rwrist 5.84133
rhand -2.36648 -50.9656
rfingers 7.12502
rthumb 23.3218 -79.5729
lclavicle -1.2921e-015 -1.31198e-014
lhumerus 25.3398 -6.80379 78.2589
lradius 80.958
lwrist -26.8152
lhand 12.4327 -16.3575
lfingers 7.12502
lthumb 37.4298 9.59458
rfemur -36.7133 -20.6829 5.0601
rtibia 69.1496
rfoot -25.4108 1.33566
rtoes -13.6544
lfemur -40.4903 20.2426 -6.94216
ltibia 72.6469
lfoot -29.674 -3.7548
ltoes -17.0409
207
root 1.913 14.2424 -1.14538 27.9419 -88.1396 -31.3727
lowerback 10.8106 0.368837 -0.904615
upperback 4.87824 0.215356 -0.160719
thorax -0.986904 0.0191309 0.319419
lowerneck -7.21947 -2.20209 -4.19072
upperneck 5.54093 -3.37675 10.5124
head 3.08247 -1.3898 3.71034
rclavicle -7.7526e-015 2.18663e-015
rhumerus 19.0854 4.85777 -76.5958
rradius 88.8856
rwrist 5.89064
rhand -2.36939 -50.9431
rfingers 7.12502
rthumb 23.3191 -79.5508
lclavicle -7.7526e-015 2.18663e-015
lhumerus 25.341 -6.80379 78.2668
lradius 80.9525
lwrist -26.6425
lhand 12.4356 -16.4312
lfingers 7.12502
lthumb 37.4326 9.52014
rfemur -36.7798 -20.7041 5.09711
rtibia 69.1671
rfoot -25.4259 1.23993
rtoes -14.2082
lfemur -40.5502 20.2477 -6.95595
ltibia 72.6496
lfoot -29.6163 -3.63966
ltoes -16.9279
208
root 1.91358 14.2388 -1.14599 26.901 -88.1288 -30.3224
lowerback 10.8189 0.367531 -0.965889
upperback 4.87501 0.208103 -0.13913
thorax -0.994998 0.0145819 0.377018
lowerneck -7.02977 -2.22354 -4.20257
upperneck 5.3756 -3.39145 10.4888
head 3.00245 -1.40721 3.70548
rclavicle -2.48481e-016 6.36111e-015
rhumerus 19.115 4.85398 -76.5554
rradius 88.8357
rwrist 5.92305
rhand -2.30423 -50.9942
rfingers 7.12502
rthumb 23.3816 -79.5939
lclavicle -2.48481e-016 6.36111e-015
lhumerus 25.3116 -6.76322 78.3233
lradius 80.9744
lwrist -26.5145
lhand 12.4692 -16.49
lfingers 7.12502
lthumb 37.4644 9.45295
rfemur -36.7673 -20.7739 5.07401
rtibia 69.1871
rfoot -25.4577 1.11716
rtoes -14.6987
lfemur -40.5814 20.2243 -6.99169
ltibia 72.6593
lfoot -29.6134 -3.55854
ltoes -17.1157
209
root 1.91371 14.2385 -1.14692 27.7807 -88.11 -31.2383
lowerback 10.8607 0.377112 -0.942468
upperback 4.87379 0.22267 -0.116574
thorax -1.01919 0.0218986 0.385414
lowerneck -7.08731 -2.26387 -4.10837
upperneck 5.46378 -3.45031 10.3579
head 3.03871 -1.43504 3.6462
rclavicle -1.63997e-015 -1.39149e-015
rhumerus 19.1256 4.81912 -76.5217
rradius 88.7858
rwrist 5.89685
rhand -2.24981 -51.0207
rfingers 7.12502
rthumb 23.4338 -79.6138
lclavicle -1.63997e-015 -1.39149e-015
lhumerus 25.2672 -6.77141 78.3568
lradius 81.0487
lwrist -26.4485
lhand 12.5661 -16.4488
lfingers 7.12502
lthumb 37.556 9.46991
rfemur -36.7347 -20.7491 5.09966
rtibia 69.1958
rfoot -25.4609 1.1711
rtoes -14.2838
lfemur -40.5359 20.2272 -6.92157
ltibia 72.6694
lfoot -29.6097 -3.73568
ltoes -16.9104
210
root 1.91686 14.2376 -1.15052 33.7443 -88.1024 -37.2495
lowerback 10.969 0.435903 -0.768723
upperback 4.85963 0.316206 -0.0954222
thorax -1.09325 0.0706855 0.298399
lowerneck -7.07887 -2.27735 -4.05453
upperneck 5.43495 -3.4775 10.4118
head 3.03102 -1.44697 3.65242
rclavicle -6.90777e-015 -2.78299e-015
rhumerus 19.0615 4.67859 -76.5631
rradius 88.7703
rwrist 5.91411
rhand -2.25601 -50.9547
rfingers 7.12502
rthumb 23.4278 -79.5485
lclavicle -6.90777e-015 -2.78299e-015
lhumerus 25.255 -6.86294 78.3483
lradius 81.0931
lwrist -26.3905
lhand 12.6751 -16.4724
lfingers 7.12502
lthumb 37.659 9.4188
rfemur -36.7782 -20.5423 5.3254
rtibia 69.2118
rfoot -25.4455 1.23504
rtoes -13.6565
lfemur -40.4905 20.3544 -6.66633
ltibia 72.6888
lfoot -29.5597 -3.91616
ltoes -16.6435
211
root 1.9227 14.236 -1.14776 32.4785 -88.1298 -35.9526
lowerback 11.0413 0.436532 -0.798552
upperback 4.82942 0.313539 -0.110133
thorax -1.16399 0.0697244 0.299969
lowerneck -6.99515 -2.26369 -3.96209
upperneck 5.28574 -3.44994 10.326
head 2.96743 -1.44024 3.61276
rclavicle 2.5345e-015 1.98785e-016
rhumerus 19.0073 4.63451 -76.6427
rradius 88.7629
rwrist 6.04108
rhand -2.10731 -50.9298
rfingers 7.12502
rthumb 23.5705 -79.5054
lclavicle 2.5345e-015 1.98785e-016
lhumerus 25.2326 -6.83628 78.3545
lradius 81.0977
lwrist -26.3164
lhand 12.7222 -16.5403
lfingers 7.12502
lthumb 37.7034 9.33899
rfemur -36.8476 -20.5854 5.26338
rtibia 69.2206
rfoot -25.4217 1.30771
rtoes -13.535
lfemur -40.5677 20.3062 -6.75614
ltibia 72.7237
lfoot -29.607 -3.86032
ltoes -16.6667
212
root 1.92414 14.2373 -1.14628 32.4759 -88.1209 -35.9126
lowerback 11.0123 0.422839 -0.768943
upperback 4.83305 0.298739 -0.115415
thorax -1.14411 0.0627539 0.279694
lowerneck -6.9669 -2.26426 -3.87918
upperneck 5.19013 -3.44118 10.2081
head 2.92999 -1.44104 3.56355
rclavicle -3.97569e-016 -1.98785e-015
rhumerus 19.0168 4.61842 -76.7078
rradius 88.7693
rwrist 6.17739
rhand -1.80752 -50.9932
rfingers 7.12502
rthumb 23.858 -79.5315
lclavicle -3.97569e-016 -1.98785e-015
lhumerus 25.2716 -6.82363 78.3406
lradius 81.0621
lwrist -26.2329
lhand 12.7427 -16.5386
lfingers 7.12502
lthumb 37.7228 9.33557
rfemur -36.8985 -20.6272 5.27916
rtibia 69.2162
rfoot -25.3855 1.28636
rtoes -13.7319
lfemur -40.6192 20.2704 -6.76475
ltibia 72.75
lfoot -29.6275 -3.91262
ltoes -16.2311
213
root 1.92504 14.2376 -1.14733 37.0685 -88.0641 -40.4732
lowerback 10.9757 0.445491 -0.558129
upperback 4.82431 0.350736 -0.121492
thorax -1.13244 0.0917263 0.148834
lowerneck -6.99016 -2.2888 -3.86506
upperneck 5.21603 -3.48658 10.3026
head 2.94659 -1.45939 3.58763
rclavicle 6.4605e-016 -1.19271e-015
rhumerus 18.9561 4.52199 -76.7713
rradius 88.8351
rwrist 6.20792
rhand -1.75237 -51.1274
rfingers 7.12502
rthumb 23.9109 -79.6588
lclavicle 6.4605e-016 -1.19271e-015
lhumerus 25.3091 -6.95222 78.2785
lradius 81.0627
lwrist -26.1534
lhand 12.8536 -16.4607
lfingers 7.12502
lthumb 37.8276 9.38524
rfemur -36.9745 -20.559 5.49773
rtibia 69.2193
rfoot -25.3481 1.23187
rtoes -13.7963
lfemur -40.6816 20.3557 -6.60568
ltibia 72.7582
lfoot -29.5908 -3.83131
ltoes -16.5679
214
root 1.92641 14.2353 -1.14788 37.195 -88.0881 -40.5775
lowerback 11.0067 0.463332 -0.553386
upperback 4.77622 0.375673 -0.153376
thorax -1.19919 0.10558 0.110008
lowerneck -7.04472 -2.29748 -3.83972
upperneck 5.3607 -3.51952 10.3735
head 3.00222 -1.46835 3.60305
rclavicle -6.41081e-015 -2.5842e-015
rhumerus 18.8322 4.47932 -76.8216
rradius 88.854
rwrist 6.19888
rhand -1.85283 -51.1995
rfingers 7.12502
rthumb 23.8145 -79.7434
lclavicle -6.41081e-015 -2.5842e-015
lhumerus 25.2446 -7.03908 78.1928
lradius 81.1053
lwrist -26.1534
lhand 12.9736 -16.3898
lfingers 7.12502
lthumb 37.941 9.42543
rfemur -37.0315 -20.5363 5.50083
rtibia 69.2424
rfoot -25.3657 1.23241
rtoes -13.611
lfemur -40.7449 20.3824 -6.64594
ltibia 72.7705
lfoot -29.5803 -3.61301
ltoes -17.3584
215
root 1.92645 14.2324 -1.14683 33.8695 -88.2261 -37.2548
lowerback 11.0258 0.474334 -0.732638
upperback 4.77641 0.370838 -0.189204
thorax -1.21035 0.101178 0.174266
lowerneck -7.12553 -2.28979 -3.80346
upperneck 5.44539 -3.51409 10.319
head 3.03884 -1.46238 3.58002
rclavicle -6.70898e-015 6.16232e-015
rhumerus 18.8182 4.53554 -76.8307
rradius 88.8021
rwrist 6.20536
rhand -1.96669 -51.1532
rfingers 7.12502
rthumb 23.7053 -79.7113
lclavicle -6.70898e-015 6.16232e-015
lhumerus 25.2146 -6.97671 78.1431
lradius 81.1111
lwrist -26.2922
lhand 12.9523 -16.4774
lfingers 7.12502
lthumb 37.9208 9.34329
rfemur -37.0416 -20.5391 5.30877
rtibia 69.2831
rfoot -25.4249 1.22805
rtoes -13.6806
lfemur -40.7425 20.39 -6.82621
ltibia 72.8035
lfoot -29.5262 -3.61927
ltoes -17.0466
216
root 1.92746 14.2296 -1.14598 31.3272 -88.3009 -34.698
lowerback 11.0079 0.465341 -0.846601
upperback 4.80338 0.346227 -0.205228
thorax -1.17295 0.0869438 0.224842
lowerneck -7.11298 -2.29199 -3.74543
upperneck 5.36068 -3.50738 10.2234
head 3.00815 -1.46334 3.54153
rclavicle 2.68359e-015 -1.19271e-015
rhumerus 18.823 4.59731 -76.8638
rradius 88.8037
rwrist 6.2685
rhand -2.08681 -51.0294
rfingers 7.12502
rthumb 23.5901 -79.6025
lclavicle 2.68359e-015 -1.19271e-015
lhumerus 25.2381 -6.87535 78.1322
lradius 81.117
lwrist -26.418
lhand 12.9316 -16.5144
lfingers 7.12502
lthumb 37.9013 9.31167
rfemur -37.0722 -20.5704 5.19338
rtibia 69.3328
rfoot -25.4403 1.20835
rtoes -14.0051
lfemur -40.7656 20.3766 -6.9364
ltibia 72.8379
lfoot -29.4393 -3.83257
ltoes -15.9964
217
root 1.93064 14.2275 -1.14538 27.8669 -88.2665 -31.1723
lowerback 11.0089 0.460599 -0.829125
upperback 4.76396 0.341753 -0.280925
thorax -1.21385 0.0866909 0.137135
lowerneck -7.03855 -2.34332 -3.63389
upperneck 5.28392 -3.58152 10.2004
head 2.976 -1.50298 3.51274
rclavicle -6.95746e-016 -4.37326e-015
rhumerus 18.7287 4.47664 -76.9498
rradius 88.8058
rwrist 6.36869
rhand -1.98075 -50.8657
rfingers 7.12502
rthumb 23.6919 -79.4256
lclavicle -6.95746e-016 -4.37326e-015
lhumerus 25.2757 -7.00963 78.0595
lradius 81.1251
lwrist -26.3791
lhand 13.0285 -16.4289
lfingers 7.12502
lthumb 37.9927 9.37226
rfemur -37.1641 -20.7064 5.11245
rtibia 69.3851
rfoot -25.4118 1.23513
rtoes -14.2185
lfemur -40.8552 20.261 -7.04069
ltibia 72.8608
lfoot -29.4266 -3.96211
ltoes -15.0843
218
root 1.93099 14.2257 -1.14564 26.4885 -88.2751 -29.7836
lowerback 11.0239 0.488595 -0.812326
upperback 4.73321 0.380231 -0.332292
thorax -1.25386 0.107268 0.06984
lowerneck -7.02945 -2.375 -3.66069
upperneck 5.32633 -3.63593 10.3147
head 2.99388 -1.52628 3.54938
rclavicle -3.52843e-015 5.96354e-015
rhumerus 18.6635 4.36286 -76.9665
rradius 88.7865
rwrist 6.38817
rhand -1.75416 -50.8724
rfingers 7.12502
rthumb 23.9092 -79.404
lclavicle -3.52843e-015 5.96354e-015
lhumerus 25.2734 -7.15722 78.0309
lradius 81.1069
lwrist -26.296
lhand 12.8881 -16.5674
lfingers 7.12502
lthumb 37.8601 9.26977
rfemur -37.2071 -20.7387 5.06329
rtibia 69.4272
rfoot -25.3971 1.26802
rtoes -14.1874
lfemur -40.8545 20.249 -7.08836
ltibia 72.867
lfoot -29.5247 -3.89504
ltoes -15.4817
219
root 1.93235 14.2242 -1.14464 24.4147 -88.3358 -27.7003
lowerback 11.0521 0.477872 -0.89962
upperback 4.70566 0.357466 -0.337277
thorax -1.29813 0.0955488 0.116295
lowerneck -7.02976 -2.34116 -3.8209
upperneck 5.40725 -3.59033 10.4291
head 3.01967 -1.50088 3.61341
rclavicle 5.2181e-015 -5.56597e-015
rhumerus 18.637 4.45634 -76.9204
rradius 88.8246
rwrist 6.32897
rhand -1.62367 -50.8059
rfingers 7.12502
rthumb 24.0343 -79.321
lclavicle 5.2181e-015 -5.56597e-015
lhumerus 25.2088 -7.09016 78.0479
lradius 81.0624
lwrist -26.2779
lhand 12.6539 -16.7025
lfingers 7.12502
lthumb 37.6389 9.19412
rfemur -37.2747 -20.7279 4.96904
rtibia 69.4588
rfoot -25.3783 1.34427
rtoes -14.0062
lfemur -40.9086 20.2916 -7.22221
ltibia 72.868
lfoot -29.6253 -3.71184
ltoes -16.7399
